<svg xmlns="http://www.w3.org/2000/svg" xmlns:xlink="http://www.w3.org/1999/xlink" viewBox="534.4579467773438 515.7262573242188 1011.9700317382812 84.1300048828125">
      <g fill="#000000" id="text_group" transform="translate(532.8579747772218, 486.99625000000003)">
              <path d="M61.90 35.57L46.63 35.57L46.63 102.49Q46.74 105.45 48.85 107.50Q50.96 109.55 53.92 109.55L53.92 109.55L55.29 109.55L55.40 110.69L20.75 110.69L20.75 109.55L22.23 109.55Q25.08 109.55 27.19 107.50Q29.30 105.45 29.53 102.60L29.53 102.60L29.53 35.57L14.14 35.57Q8.89 35.68 5.81 38.87Q2.74 42.07 2.74 47.20L2.74 47.20L2.74 48.56L1.60 48.56L1.60 28.73Q6.27 30.67 15.05 30.78L15.05 30.78L60.99 30.78Q64.52 30.78 68.69 30.10Q72.85 29.41 74.44 28.73L74.44 28.73L74.44 48.56L73.30 48.56L73.30 47.20Q73.30 40.13 67.94 37.16L67.94 37.16Q65.44 35.68 61.90 35.57L61.90 35.57ZM168.95 109.55L168.95 109.55L170.20 109.55L170.20 110.69L138.85 110.69L138.85 109.55L139.99 109.55Q142.61 109.55 144.44 107.84Q146.26 106.13 146.26 103.51L146.26 103.51L146.26 78.89L116.28 78.89L116.28 103.51Q116.39 106.13 118.22 107.84Q120.04 109.55 122.55 109.55L122.55 109.55L123.80 109.55L123.80 110.69L92.34 110.69L92.34 109.55L93.59 109.55Q96.22 109.55 98.04 107.79Q99.86 106.02 99.86 103.51L99.86 103.51L99.86 49.48Q99.86 46.97 98.04 45.20Q96.22 43.43 93.59 43.43L93.59 43.43L92.34 43.43L92.34 42.29L123.80 42.29L123.80 43.43L122.55 43.43Q120.04 43.43 118.22 45.14Q116.39 46.85 116.28 49.36L116.28 49.36L116.28 74.33L146.26 74.33L146.26 49.48Q146.26 45.94 143.18 44.23L143.18 44.23Q141.70 43.43 139.99 43.43L139.99 43.43L138.85 43.43L138.85 42.29L170.20 42.29L170.20 43.43L168.95 43.43Q166.44 43.43 164.62 45.14Q162.79 46.85 162.68 49.48L162.68 49.48L162.68 103.63Q162.79 107.16 165.76 108.76L165.76 108.76Q167.24 109.55 168.95 109.55ZM247.72 89.72L243.39 110.69L189.70 110.69L189.70 109.55L191.06 109.55Q193.69 109.55 195.45 107.84Q197.22 106.13 197.33 103.63L197.33 103.63L197.33 49.36Q197.22 46.85 195.45 45.14Q193.69 43.43 191.06 43.43L191.06 43.43L189.70 43.43L189.70 42.29L229.82 42.29Q232.90 42.29 236.55 41.72Q240.20 41.15 241.68 40.58L241.68 40.58L241.68 58.71L240.54 58.71L240.54 57.68Q240.54 52.67 237.80 49.82Q235.07 46.97 230.17 46.85L230.17 46.85L213.75 46.85L213.75 74.56L226.75 74.56Q230.62 74.44 233.02 71.93Q235.41 69.43 235.41 65.55L235.41 65.55L235.41 64.75L236.55 64.75L236.55 88.92L235.41 88.92L235.41 88.12Q235.41 82.76 231.42 80.37L231.42 80.37Q229.37 79.12 226.86 79.12L226.86 79.12L213.75 79.12L213.75 106.13L227.43 106.13Q234.50 106.02 239.46 101.75Q244.42 97.47 246.70 89.72L246.70 89.72L247.72 89.72ZM321.31 40.47Q333.45 29.30 354.03 29.30Q374.60 29.30 386.75 40.47Q398.89 51.64 398.89 70.79Q398.89 89.95 386.75 101.12Q374.60 112.29 354.03 112.29Q333.45 112.29 321.31 101.12Q309.17 89.95 309.17 70.79Q309.17 51.64 321.31 40.47ZM334.88 97.64Q341.89 107.50 353.97 107.50Q366.05 107.50 373.12 97.64Q380.19 87.78 380.19 70.79Q380.19 53.81 373.12 43.95Q366.05 34.09 353.97 34.09Q341.89 34.09 334.88 43.95Q327.86 53.81 327.86 70.79Q327.86 87.78 334.88 97.64ZM513.11 109.55L513.11 109.55L514.71 109.55L514.71 110.69L483.02 110.69L483.02 109.55L484.61 109.55Q486.78 109.55 487.75 108.07Q488.72 106.59 488.49 104.99L488.49 104.99L484.04 72.39L465.92 101.23Q461.81 107.73 461.81 112.86L461.81 112.86L460.79 112.86L434.45 72.96L430.58 104.99Q430.35 106.59 431.38 108.07Q432.40 109.55 434.45 109.55L434.45 109.55L436.05 109.55L436.05 110.69L414.39 110.69L414.39 109.55L415.99 109.55Q418.84 109.55 420.95 107.90Q423.05 106.25 423.40 103.40L423.40 103.40L432.29 40.81L433.20 40.81L465.46 89.03L495.67 40.81L496.70 40.81L505.82 103.97Q506.39 106.59 508.44 108.07Q510.49 109.55 513.11 109.55ZM588.13 89.72L583.79 110.69L530.10 110.69L530.10 109.55L531.47 109.55Q534.09 109.55 535.86 107.84Q537.62 106.13 537.74 103.63L537.74 103.63L537.74 49.36Q537.62 46.85 535.86 45.14Q534.09 43.43 531.47 43.43L531.47 43.43L530.10 43.43L530.10 42.29L570.23 42.29Q573.31 42.29 576.95 41.72Q580.60 41.15 582.08 40.58L582.08 40.58L582.08 58.71L580.94 58.71L580.94 57.68Q580.94 52.67 578.21 49.82Q575.47 46.97 570.57 46.85L570.57 46.85L554.15 46.85L554.15 74.56L567.15 74.56Q571.03 74.44 573.42 71.93Q575.81 69.43 575.81 65.55L575.81 65.55L575.81 64.75L576.95 64.75L576.95 88.92L575.81 88.92L575.81 88.12Q575.81 82.76 571.82 80.37L571.82 80.37Q569.77 79.12 567.26 79.12L567.26 79.12L554.15 79.12L554.15 106.13L567.83 106.13Q574.90 106.02 579.86 101.75Q584.82 97.47 587.10 89.72L587.10 89.72L588.13 89.72ZM657.44 43.43L657.44 42.29L689.47 42.29L689.47 43.43L687.53 43.43Q684.91 43.43 683.14 45.03Q681.38 46.63 681.26 49.13L681.26 49.13L681.26 98.95Q681.26 106.02 682.18 110.58L682.18 110.58L682.40 112.18L681.38 112.18L629.05 66.01L629.05 103.74Q629.17 106.25 630.93 107.90Q632.70 109.55 635.32 109.55L635.32 109.55L637.26 109.55L637.26 110.69L605.34 110.69L605.34 109.55L607.16 109.55Q609.79 109.55 611.61 107.90Q613.43 106.25 613.43 103.74L613.43 103.74L613.43 53.58Q613.43 46.74 612.52 42.29L612.52 42.29L612.29 40.70L613.32 40.81L665.53 86.75L665.53 49.25Q665.53 46.74 663.76 45.09Q662.00 43.43 659.38 43.43L659.38 43.43L657.44 43.43ZM791.50 30.89Q811.68 30.89 823.42 41.61Q835.16 52.33 835.16 70.79Q835.16 89.26 823.42 99.98Q811.68 110.69 791.50 110.69L791.50 110.69L750.12 110.69L750.12 109.55L751.60 109.55Q754.57 109.55 756.67 107.45Q758.78 105.34 758.90 102.37L758.90 102.37L758.90 38.53Q758.90 35.80 756.67 33.92Q754.45 32.03 751.60 32.03L751.60 32.03L750.12 32.03L750.12 30.89L791.50 30.89ZM776.00 105.79L790.02 105.79Q798.23 105.79 804.21 101.57Q810.20 97.36 813.39 89.43Q816.58 81.51 816.58 72.16Q816.58 62.81 814.70 56.26Q812.82 49.70 809.40 45.14L809.40 45.14Q802.33 35.68 790.02 35.68L790.02 35.68L776.00 35.68L776.00 105.79ZM912.23 89.72L907.90 110.69L854.20 110.69L854.20 109.55L855.57 109.55Q858.19 109.55 859.96 107.84Q861.73 106.13 861.84 103.63L861.84 103.63L861.84 49.36Q861.73 46.85 859.96 45.14Q858.19 43.43 855.57 43.43L855.57 43.43L854.20 43.43L854.20 42.29L894.33 42.29Q897.41 42.29 901.06 41.72Q904.70 41.15 906.19 40.58L906.19 40.58L906.19 58.71L905.05 58.71L905.05 57.68Q905.05 52.67 902.31 49.82Q899.57 46.97 894.67 46.85L894.67 46.85L878.26 46.85L878.26 74.56L891.25 74.56Q895.13 74.44 897.52 71.93Q899.92 69.43 899.92 65.55L899.92 65.55L899.92 64.75L901.06 64.75L901.06 88.92L899.92 88.92L899.92 88.12Q899.92 82.76 895.93 80.37L895.93 80.37Q893.87 79.12 891.37 79.12L891.37 79.12L878.26 79.12L878.26 106.13L891.94 106.13Q899.00 106.02 903.96 101.75Q908.92 97.47 911.20 89.72L911.20 89.72L912.23 89.72ZM981.54 43.43L981.54 42.29L1013.57 42.29L1013.57 43.43L1011.64 43.43Q1009.01 43.43 1007.25 45.03Q1005.48 46.63 1005.37 49.13L1005.37 49.13L1005.37 98.95Q1005.37 106.02 1006.28 110.58L1006.28 110.58L1006.51 112.18L1005.48 112.18L953.15 66.01L953.15 103.74Q953.27 106.25 955.03 107.90Q956.80 109.55 959.42 109.55L959.42 109.55L961.36 109.55L961.36 110.69L929.44 110.69L929.44 109.55L931.27 109.55Q933.89 109.55 935.71 107.90Q937.54 106.25 937.54 103.74L937.54 103.74L937.54 53.58Q937.54 46.74 936.62 42.29L936.62 42.29L936.40 40.70L937.42 40.81L989.63 86.75L989.63 49.25Q989.63 46.74 987.87 45.09Q986.10 43.43 983.48 43.43L983.48 43.43L981.54 43.43Z"></path>
          </g>
  </svg>